<?xml version="1.0" encoding="UTF-8"?>
<svg id="Layer_2" data-name="Layer 2" xmlns="http://www.w3.org/2000/svg" xmlns:xlink="http://www.w3.org/1999/xlink" viewBox="0 0 117.05 188">
  <defs>
    <clipPath id="clippath">
      <rect width="117.05" height="188" fill="none" stroke-width="0"/>
    </clipPath>
  </defs>
  <g id="Layer_1-2" data-name="Layer 1">
    <g clip-path="url(#clippath)">
      <path d="m58.52,188h0c32.32,0,58.53-26.2,58.53-58.53,0-12.63-4-24.32-10.8-33.88-4.1-6.57-19.88-32.57-25.25-57.77-1.39-6.52-6.1-9.15-6.52-9.31v-2.92c.01-.61.11-2.24,1.07-2.75,1.74-.92,1.78-3.54.06-4.59,2-1.21,1.44-3.77,0-4.54,2.1-1.38,1.5-4.42-.99-4.91-1.57-.31-1.68-1.54-1.82-2.23C71.99,2.77,65.91,0,58.52,0s-13.47,2.77-14.26,6.56c-.14.68-.25,1.92-1.82,2.23-2.49.49-3.09,3.53-.99,4.91-1.44.78-2,3.33,0,4.54-1.73,1.05-1.68,3.67.06,4.59.96.51,1.06,2.15,1.07,2.75v2.92c-.42.17-5.13,2.79-6.52,9.31-5.37,25.2-21.15,51.21-25.25,57.77C4,105.15,0,116.85,0,129.48,0,161.8,26.2,188,58.52,188m-25.72-65.31c6.23-13.83,15.26-38.68,17.08-67.47h0c.03-.62.56-1.09,1.17-1.05.61.03,1.08.56,1.04,1.17h0c-1.13,22.89-9.32,48.38-13.6,58.62,2.39.28,3.48,2.71,4.37,4.69.58,1.29,1.29,2.89,2,2.89s1.42-1.6,2-2.89c.94-2.1,2.12-4.71,4.83-4.71s3.88,2.62,4.83,4.72c.58,1.29,1.3,2.89,2.01,2.89s1.41-1.6,1.99-2.89c.94-2.1,2.12-4.72,4.83-4.72s3.88,2.62,4.83,4.71c.58,1.29,1.3,2.89,2,2.89s1.42-1.6,2-2.89c.89-1.98,1.98-4.41,4.37-4.69-4.28-10.24-12.46-35.72-13.6-58.61h0c-.04-.62.43-1.14,1.04-1.17.61-.03,1.13.43,1.17,1.04h0c1.82,28.8,10.85,53.65,17.08,67.48.21.46,0,1-.46,1.21-.48.22-1.02-.02-1.21-.46-1.91-4.33-2.69-6.42-3.56-6.42-.7,0-1.42,1.6-2,2.89-.94,2.1-2.12,4.71-4.83,4.71s-3.88-2.61-4.83-4.71c-.58-1.29-1.29-2.89-2-2.89s-1.42,1.6-2,2.89c-.94,2.1-2.11,4.71-4.82,4.71s-3.89-2.61-4.83-4.71c-.58-1.29-1.3-2.89-2-2.89s-1.42,1.6-2,2.89c-.94,2.1-2.12,4.71-4.83,4.71s-3.88-2.61-4.83-4.71c-.58-1.29-1.29-2.89-2-2.89-.87,0-1.65,2.1-3.56,6.42-.19.43-.74.68-1.22.46-.46-.21-.66-.75-.46-1.21" stroke-width="0"/>
      <path d="m58.52,124.62c2.71,0,3.87-2.61,4.82-4.71.58-1.29,1.29-2.89,2-2.89s1.42,1.6,2,2.89c.94,2.1,2.12,4.71,4.83,4.71s3.88-2.61,4.83-4.71c.58-1.29,1.3-2.89,2-2.89.87,0,1.65,2.1,3.56,6.42.19.43.74.68,1.22.46.46-.21.66-.75.46-1.21-6.23-13.83-15.26-38.68-17.08-67.47h0c-.04-.62-.56-1.09-1.17-1.05-.61.03-1.08.56-1.04,1.17h0c1.13,22.89,9.32,48.38,13.6,58.62-2.39.28-3.48,2.71-4.37,4.69-.58,1.29-1.3,2.89-2,2.89s-1.42-1.6-2-2.89c-.94-2.1-2.12-4.71-4.83-4.71s-3.88,2.62-4.83,4.71c-.58,1.29-1.29,2.89-1.99,2.89s-1.43-1.6-2.01-2.89c-.94-2.1-2.12-4.71-4.83-4.71s-3.88,2.62-4.83,4.71c-.58,1.29-1.3,2.89-2,2.89s-1.42-1.6-2-2.89c-.89-1.98-1.98-4.41-4.37-4.69,4.28-10.24,12.47-35.72,13.6-58.61h0c.03-.62-.43-1.14-1.04-1.17-.61-.03-1.13.43-1.17,1.04h0c-1.82,28.8-10.85,53.65-17.08,67.48-.21.46,0,1,.46,1.21.48.22,1.03-.03,1.22-.46,1.91-4.33,2.69-6.42,3.56-6.42.7,0,1.42,1.6,2,2.89.94,2.1,2.12,4.71,4.83,4.71s3.88-2.61,4.83-4.71c.58-1.29,1.3-2.89,2-2.89s1.42,1.6,2,2.89c.94,2.1,2.12,4.71,4.83,4.71" fill="#fff" stroke-width="0"/>
    </g>
  </g>
</svg>